# xmcd
#
# Track frame offsets:
#	150
#	10502
#	28422
#	40508
#	50403
#	62555
#	74550
#	90385
#	101848
#	115953
#	130740
#	142273
#	154650
#	166497
#	178859
#	191022
#
# Disc length: 2682 seconds
#
# Revision: 0
# Processed by: cddbd v1.5.2PL0 Copyright (c) Steve Scherf et al.
# Submitted via: dBpowerAMP V4.0
#
DISCID=df0a7810
DTITLE=Mixed - Essential Country
DYEAR=1900
DGENRE=Country
TTITLE0=Live Fast, Love Hard, Die Young - Faron Young
TTITLE1=Something's Burning - Kenny Rogers
TTITLE2=Curly Headed Baby - T Texas Tyler
TTITLE3=Hey Porter - Johnny Cash
TTITLE4=Wild Side Of Life - Hank Thompson
TTITLE5=Take Me Back To Tulsa - Bob Wills and His Texas Playboys
TTITLE6=Cry Time - Commander Cody and his lost planet airmen
TTITLE7=Don't Add An Ex To Your Name - George McCorrmick
TTITLE8=So Much To Do - Wille Nelson
TTITLE9=Feudin and Fightin - Dorothy Shaw
TTITLE10=Let The Teardrops Fall - Patsy Cline
TTITLE11=She Even Woke Me UO To Say Goodbye - Ed Bruce
TTITLE12=Play It Cool Man - Georhe Jones
TTITLE13=Sunshine - bille jo Spears
TTITLE14=Follow Me Back To Louisville - Don Williams
TTITLE15=Lorena - Waylon Jennings
EXTD=cd 2 of 20 big country collection box set got of bid uptv
EXTT0=
EXTT1=
EXTT2=
EXTT3=
EXTT4=
EXTT5=
EXTT6=
EXTT7=
EXTT8=
EXTT9=
EXTT10=
EXTT11=
EXTT12=
EXTT13=
EXTT14=
EXTT15=
PLAYORDER=
